<svg width="365" height="112" viewBox="0 0 365 112" fill="none" xmlns="http://www.w3.org/2000/svg">
<path d="M104.644 69.5306L104.893 71.1331C101.949 72.0828 99.563 72.9968 97.7349 73.8752C95.9068 74.7299 94.5061 75.6084 93.5327 76.5106C92.583 77.389 91.9301 78.3268 91.574 79.3239C91.2179 80.2973 91.0398 81.3894 91.0398 82.6002C91.0398 84.5945 91.5621 86.0784 92.6067 87.0518C93.6751 88.0252 94.9928 88.5119 96.5597 88.5119C97.7468 88.5119 98.7795 88.2863 99.658 87.8352C100.56 87.3604 101.261 86.66 101.759 85.7341C102.258 84.7845 102.507 83.6211 102.507 82.2441V65.7913C102.507 63.5121 101.937 61.779 100.798 60.5919C99.658 59.3811 97.9248 58.7757 95.5982 58.7757C94.4586 58.7757 93.3427 58.8588 92.2506 59.0249C91.1822 59.1674 90.3276 59.3811 89.6865 59.666L91.4315 58.0278C91.3366 59.1436 91.206 60.1883 91.0398 61.1617C90.8736 62.1351 90.6718 62.9898 90.4344 63.7258C90.2207 64.438 89.9714 64.9841 89.6865 65.3639C89.3541 65.7913 88.8437 66.1355 88.1552 66.3967C87.4904 66.6341 86.7901 66.7528 86.0541 66.7528C85.0807 66.7528 84.321 66.5747 83.7749 66.2186C83.2526 65.8388 82.9914 65.2927 82.9914 64.5805C82.9914 63.5596 83.4781 62.5387 84.4515 61.5178C85.4487 60.4732 86.7426 59.5235 88.3333 58.6688C89.9477 57.8141 91.7046 57.1375 93.6039 56.6389C95.5032 56.1166 97.355 55.8554 99.1594 55.8554C102.008 55.8554 104.276 56.2709 105.961 57.1019C107.671 57.9091 108.905 59.0606 109.665 60.5563C110.448 62.052 110.84 63.8089 110.84 65.8269V86.2683C110.84 87.0043 110.959 87.5978 111.196 88.0489C111.434 88.5 111.766 88.8324 112.193 89.0461C112.621 89.236 113.108 89.331 113.654 89.331C114.39 89.331 115.114 89.2123 115.826 88.9748C116.562 88.7374 117.322 88.3694 118.105 87.8709V89.0817C116.324 91.0522 114.722 92.3343 113.297 92.9278C111.873 93.4976 110.354 93.7825 108.739 93.7825C107.196 93.7825 105.973 93.462 105.071 92.821C104.193 92.1799 103.552 91.2303 103.148 89.972C102.768 88.7137 102.543 87.1586 102.471 85.3068L102.685 85.4136C102.258 87.0993 101.581 88.5712 100.655 89.8295C99.7529 91.0878 98.6489 92.0612 97.3432 92.7497C96.0611 93.4145 94.6366 93.7469 93.0697 93.7469C89.9833 93.7469 87.4786 92.9515 85.5555 91.3609C83.6324 89.7464 82.6709 87.4673 82.6709 84.5233C82.6709 82.9801 82.9321 81.615 83.4544 80.4279C83.9767 79.2408 84.9976 78.1131 86.517 77.0447C88.0365 75.9526 90.2445 74.813 93.1409 73.626C96.0611 72.4389 99.8954 71.0738 104.644 69.5306ZM131.632 90.8623L136.332 92.0019V92.999H118.633V92.0019L123.298 90.8623V47.2373C122.99 47.0711 122.562 46.8337 122.016 46.525C121.47 46.2164 120.817 45.8484 120.058 45.4211C119.298 44.97 118.455 44.4833 117.529 43.961V43.2131L131.347 40.1148H131.667L131.632 46.6319V90.8623ZM157.606 55.8198C160.265 55.8198 162.556 56.3659 164.479 57.458C166.402 58.5264 167.921 60.1052 169.037 62.1944C170.177 64.2599 170.854 66.7884 171.067 69.7798H147.349V67.5007L166.687 67.465L163.054 68.9964C162.841 66.3373 162.461 64.1887 161.915 62.5506C161.393 60.9124 160.68 59.7134 159.778 58.9537C158.9 58.194 157.808 57.8141 156.502 57.8141C154.792 57.8141 153.32 58.3246 152.086 59.3455C150.875 60.3426 149.937 61.8502 149.272 63.8682C148.631 65.8862 148.311 68.4266 148.311 71.4892C148.311 75.3353 148.798 78.4574 149.771 80.8552C150.768 83.2531 152.205 85.01 154.08 86.1259C155.979 87.218 158.294 87.764 161.025 87.764C162.33 87.764 163.589 87.5978 164.799 87.2655C166.01 86.9331 167.15 86.4226 168.218 85.7341C169.31 85.0219 170.296 84.1316 171.174 83.0632L171.851 83.5618C170.307 86.1021 168.764 88.1201 167.221 89.6159C165.702 91.0878 164.087 92.1562 162.378 92.821C160.692 93.462 158.852 93.7825 156.858 93.7825C153.629 93.7825 150.744 93.0821 148.204 91.6814C145.688 90.2569 143.693 88.1914 142.221 85.4848C140.773 82.7546 140.049 79.4189 140.049 75.4778C140.049 71.9403 140.726 68.6877 142.079 65.72C143.456 62.7286 145.45 60.3307 148.062 58.5264C150.697 56.722 153.878 55.8198 157.606 55.8198ZM189.909 55.8198C191.643 55.8198 193.186 55.986 194.539 56.3184C195.916 56.6508 197.317 57.1494 198.741 57.8141L199.952 67.6075H198.848L193.898 57.921L196.783 61.0905C195.501 59.7847 194.302 58.8706 193.186 58.3483C192.094 57.8023 190.812 57.5292 189.34 57.5292C187.274 57.5292 185.683 57.9803 184.568 58.8825C183.452 59.7609 182.894 61.0548 182.894 62.7642C182.894 63.6901 183.084 64.5567 183.464 65.3639C183.867 66.1474 184.674 66.919 185.885 67.6787C187.12 68.4384 188.983 69.2813 191.476 70.2072C193.352 70.8719 194.907 71.6198 196.142 72.4508C197.4 73.258 198.397 74.1483 199.133 75.1217C199.869 76.0713 200.379 77.116 200.664 78.2556C200.973 79.3714 201.127 80.5822 201.127 81.888C201.127 84.2384 200.486 86.3158 199.204 88.1201C197.922 89.9008 196.201 91.2896 194.04 92.2868C191.88 93.2839 189.47 93.7825 186.811 93.7825C184.817 93.7825 183.06 93.6044 181.541 93.2483C180.021 92.8922 178.62 92.3817 177.338 91.717L175.344 80.4635H176.626L182.787 91.9663L180.828 90.0076C181.469 90.4587 182.134 90.8385 182.823 91.1472C183.535 91.4321 184.259 91.6576 184.995 91.8238C185.731 91.9663 186.479 92.0375 187.238 92.0375C189.257 92.0375 191.037 91.4796 192.58 90.3637C194.124 89.2241 194.895 87.5147 194.895 85.2356C194.895 84.3809 194.741 83.5855 194.432 82.8495C194.147 82.1135 193.672 81.425 193.008 80.784C192.343 80.143 191.429 79.5257 190.266 78.9322C189.126 78.3149 187.69 77.7095 185.956 77.116C183.677 76.285 181.849 75.3591 180.472 74.3382C179.119 73.2936 178.145 72.1184 177.552 70.8126C176.982 69.4831 176.697 67.9874 176.697 66.3255C176.697 64.1175 177.291 62.23 178.478 60.6631C179.689 59.0962 181.291 57.8972 183.286 57.0663C185.28 56.2353 187.488 55.8198 189.909 55.8198ZM236.963 56.817L235.645 67.5007L236.963 78.1487H236.072L231.977 68.9251L215.31 68.1061V66.8596L231.977 65.8981L236.072 56.817H236.963ZM242.269 39.9368H242.661L246.4 56.6389L245.403 56.9238L236.607 43.4268L242.198 44.5664H214.171V42.1091H237.532L242.269 39.9368ZM220.189 42.1091V90.3637L226.315 91.895V92.999H204.627V91.895L210.752 90.3637V44.7444L204.627 43.2131V42.1091H220.189ZM261.352 90.8623L266.053 92.0019V92.999H248.354V92.0019L253.019 90.8623V47.2373C252.71 47.0711 252.283 46.8337 251.737 46.525C251.191 46.2164 250.538 45.8484 249.778 45.4211C249.018 44.97 248.175 44.4833 247.25 43.961V43.2131L261.067 40.1148H261.388L261.352 46.6319V90.8623ZM287.753 91.9663C289.795 91.9663 291.493 91.349 292.846 90.1144C294.223 88.8799 295.244 87.0162 295.909 84.5233C296.597 82.0305 296.941 78.9084 296.941 75.1573C296.941 71.3112 296.609 68.0942 295.944 65.5064C295.28 62.9185 294.271 60.9717 292.917 59.666C291.588 58.3364 289.902 57.6717 287.86 57.6717C285.819 57.6717 284.109 58.289 282.732 59.5235C281.379 60.7581 280.358 62.6218 279.67 65.1146C279.005 67.6075 278.672 70.7295 278.672 74.4807C278.672 78.303 279.005 81.52 279.67 84.1316C280.334 86.7194 281.331 88.6781 282.661 90.0076C284.014 91.3134 285.712 91.9663 287.753 91.9663ZM287.575 93.7825C284.204 93.7825 281.165 92.9753 278.459 91.3609C275.776 89.7464 273.651 87.5147 272.084 84.6658C270.517 81.8168 269.734 78.5405 269.734 74.8368C269.734 71.1094 270.541 67.8212 272.155 64.9722C273.793 62.0995 275.99 59.8559 278.744 58.2415C281.521 56.6271 284.631 55.8198 288.074 55.8198C291.493 55.8198 294.544 56.6271 297.226 58.2415C299.933 59.8559 302.058 62.0876 303.601 64.9366C305.144 67.7856 305.916 71.0738 305.916 74.8012C305.916 78.5286 305.085 81.8286 303.423 84.7014C301.761 87.5503 299.541 89.7821 296.763 91.3965C294.009 92.9872 290.947 93.7825 287.575 93.7825ZM357.212 58.8469L352.227 57.8141V56.6033H364.549V57.8141L360.204 58.8113L350.126 93.7469H347.17L334.029 64.6161L336.237 64.3668L324.556 93.7469H321.6L310.774 59.1674L306.465 57.7785V56.6033H324.485V57.8141L319.606 59.0249L327.334 85.2712L325.517 86.9093L336.272 55.7842H339.406L352.298 84.8438L350.375 86.9093L357.212 58.8469Z" fill="black"/>
<path d="M20.6418 0.0746763C19.7714 0.312057 17.0924 3.42061 15.589 5.94137C13.4073 9.60381 12.2656 13.8767 12.2656 18.3191C12.2656 20.3425 12.65 23.338 13.0569 24.4797C13.136 24.6944 13.283 25.1805 13.3847 25.5535C13.7012 26.6726 14.8768 29.3403 15.5211 30.4142C17.2393 33.2514 18.7879 35.0148 21.9417 37.7052C22.3373 38.0443 22.6878 38.3495 22.7217 38.3947C22.7556 38.4286 23.2077 38.8355 23.739 39.2877C24.2703 39.7399 24.7225 40.1468 24.7564 40.1807C24.7903 40.2259 25.6494 40.9833 26.678 41.8763C27.7067 42.7693 29.0744 43.9675 29.7301 44.544C30.3857 45.1205 31.3465 45.957 31.8778 46.4204C33.2569 47.6073 35.6759 50.015 36.3428 50.8402C36.9984 51.6654 38.2079 53.2705 38.4001 53.5871C39.3044 55.0679 39.6322 55.6444 40.1409 56.5826C40.4235 57.1252 41.373 59.1825 41.373 59.2616C41.373 59.3068 41.52 59.7137 41.7008 60.1885C42.0852 61.1945 42.6843 63.1614 42.7634 63.6475C42.786 63.8283 42.9442 64.6196 43.1025 65.3996C43.4642 67.163 43.5433 68.2029 43.532 71.1532C43.5207 73.9001 43.3964 75.3469 43.0686 76.8164C42.9329 77.4042 42.786 78.1164 42.7408 78.399C42.3564 80.4676 40.6157 84.7517 39.214 87.0464C38.7392 87.8151 38.0384 88.9116 37.9027 89.0811C37.8462 89.1376 37.6088 89.4767 37.3601 89.8159C37.1115 90.155 36.8854 90.4602 36.8515 90.4941C36.8176 90.528 36.3315 91.0819 35.755 91.7375C35.1898 92.3931 34.3985 93.2409 33.9803 93.6366C33.5734 94.0322 33.2342 94.4052 33.2342 94.4617C33.2342 94.5183 38.5697 94.5635 46.5954 94.5635H59.9565L61.1547 93.354C63.8677 90.6071 66.0267 87.0125 66.9762 83.6553C67.0892 83.2822 67.2136 82.8753 67.2701 82.751C67.3831 82.4797 67.7336 80.5919 67.9596 79.0772C68.1518 77.7095 68.1518 75.1322 67.9596 73.8209C67.7223 72.1932 67.3605 70.2376 67.2588 70.0454C67.2136 69.9437 67.0892 69.5594 66.9875 69.1864C66.8745 68.8133 66.7275 68.3273 66.6484 68.1125C66.1962 66.9595 65.7102 65.8517 65.4276 65.3657C65.258 65.0718 65.1111 64.8005 65.1111 64.7552C65.1111 64.5066 62.9068 61.285 62.3529 60.7424C62.2738 60.6633 61.9912 60.3354 61.7086 60.0302C61.2678 59.5329 60.4765 58.7755 59.007 57.4417C58.7922 57.2382 58.0236 56.5713 57.3114 55.9609C56.5993 55.3392 55.9889 54.8079 55.955 54.774C55.9211 54.7287 55.288 54.1749 54.542 53.5305C53.7959 52.8862 53.129 52.2984 53.0612 52.2419C52.9934 52.1741 52.4395 51.688 51.8178 51.1567C51.2074 50.6254 50.45 49.9698 50.1335 49.6872C49.8283 49.4046 49.184 48.8394 48.7205 48.4438C45.1372 45.3466 42.6843 42.4867 40.8078 39.1747C40.2539 38.1912 38.9992 35.6026 38.9992 35.4331C38.9992 35.3766 38.8523 34.9583 38.6714 34.5062C38.5018 34.0653 38.2645 33.3871 38.1514 33.0141C38.0384 32.641 37.8801 32.1098 37.801 31.8272C37.654 31.3411 37.5071 30.6742 37.1454 28.7751C36.8741 27.3961 36.795 26.2544 36.795 23.6884C36.795 21.1111 36.8967 19.6529 37.1341 18.5452C37.2132 18.1721 37.3715 17.4035 37.4732 16.8496C37.688 15.7305 38.1514 14.1593 38.6714 12.8254C38.8523 12.362 38.9992 11.9324 38.9992 11.8872C38.9992 11.7968 39.2818 11.1637 39.8809 9.89771C41.2826 6.94741 43.3286 4.09884 45.9963 1.39723C46.6519 0.730299 47.138 0.142499 47.0928 0.097284C46.9797 -0.0157544 21.06 -0.0383621 20.6418 0.0746763Z" fill="#04A474"/>
<path d="M53.8628 0.0405036C53.4219 0.0970229 51.489 2.04128 50.3134 3.61251C49.0586 5.29679 47.5552 7.94189 47.137 9.21922C47.0805 9.37747 46.9335 9.78441 46.7979 10.1235C46.6622 10.4626 46.504 10.9261 46.4588 11.1409C46.4135 11.3556 46.2553 11.9434 46.1196 12.4408C45.7353 13.8538 45.4414 16.4198 45.4414 18.2623C45.4527 20.1161 45.7579 22.7386 46.1309 24.0273C46.2553 24.4907 46.4135 25.0785 46.4588 25.3385C46.5153 25.5872 46.6848 26.0959 46.8431 26.4576C47.0013 26.808 47.137 27.1584 47.137 27.2375C47.137 27.4636 48.6065 30.3461 49.1152 31.1261C49.9403 32.3808 50.0986 32.5956 50.9916 33.6694C52.4611 35.4328 55.8409 38.5188 57.6496 39.7396C57.7852 39.83 58.113 40.0674 58.373 40.2596C58.9834 40.7117 60.306 41.5708 60.8711 41.876C61.1198 42.0117 61.5042 42.2264 61.7189 42.3621C62.2841 42.7012 64.7258 43.922 64.8388 43.922C64.8953 43.922 65.0988 44.0011 65.2796 44.1029C66.3196 44.6455 69.6316 45.7758 71.3837 46.1828C72.7289 46.488 73.0567 46.5558 74.8314 46.8045C78.0869 47.2679 80.3703 47.4488 80.3703 47.2453C80.3703 47.2001 79.7486 46.5219 78.9799 45.7419C77.3634 44.069 76.3913 42.8821 75.1931 41.1074C74.1871 39.6039 74.0175 39.2987 73.2036 37.6484C72.435 36.0885 72.0506 35.2407 71.9489 34.8789C71.9037 34.7207 71.7567 34.2911 71.6098 33.9181C71.4628 33.5338 71.282 32.9799 71.2142 32.6747C71.1463 32.3582 71.0559 32.0078 70.9994 31.8834C70.8637 31.5669 70.6603 30.6852 70.4568 29.5661C69.9255 26.5932 69.7673 24.242 69.9481 21.823C70.129 19.4153 70.4229 17.4936 70.8185 16.058C70.9203 15.685 71.0785 15.1198 71.1576 14.8146C71.7454 12.6217 72.955 9.84093 74.3114 7.58016C74.6844 6.95845 75.1253 6.26892 75.3061 6.04284C75.4757 5.81676 75.6227 5.59069 75.6227 5.55678C75.6227 5.48895 76.5948 4.18901 76.8661 3.89511C76.9565 3.79338 77.3295 3.36383 77.68 2.93428C78.0304 2.50474 78.7877 1.70217 79.3529 1.14828C79.9181 0.594389 80.3477 0.119631 80.3138 0.085719C80.2459 0.017896 54.4506 -0.0273194 53.8628 0.0405036Z" fill="#04A474"/>
<path d="M0 47.4717C0 47.5169 0.53128 48.0708 1.1643 48.7038C2.56597 50.0942 3.61723 51.315 4.57806 52.6827C5.24498 53.6323 6.01364 54.8192 6.08147 54.9887C6.11538 55.0905 6.20581 55.2487 6.28494 55.3391C6.7597 55.9156 8.50049 59.872 8.98655 61.4997C9.09959 61.8728 9.24654 62.3814 9.32567 62.6301C9.65348 63.6927 10.1395 66.2474 10.3204 67.9429C10.5917 70.3846 10.4447 74.2279 10.0039 76.2513C9.92477 76.6582 9.76652 77.3929 9.66478 77.8903C9.55174 78.3877 9.34828 79.2242 9.19002 79.7554C9.03177 80.2867 8.87351 80.8632 8.817 81.0554C8.77178 81.2362 8.60222 81.6884 8.43266 82.0614C8.27441 82.4232 8.13876 82.7736 8.13876 82.8301C8.13876 82.8866 7.99182 83.237 7.79965 83.6214C7.61879 83.9944 7.46053 84.3448 7.46053 84.4013C7.46053 84.4465 7.31358 84.7517 7.12142 85.0682C6.94056 85.3848 6.7823 85.69 6.7823 85.7465C6.7823 85.803 6.62405 86.0743 6.44319 86.3456C6.25102 86.6282 6.10407 86.8882 6.10407 86.9221C6.10407 87.0803 4.32937 89.6802 3.62853 90.5393C2.67901 91.7262 2.29468 92.1558 1.05126 93.3879C0.474761 93.9531 0.0339115 94.4504 0.0791269 94.4843C0.113038 94.5296 6.12668 94.5635 13.4403 94.5635H26.7336L27.2762 94.1C27.9318 93.5348 29.7178 91.4775 30.4525 90.4602C30.9386 89.782 32.2159 87.7133 32.2159 87.6116C32.2159 87.589 32.442 87.0803 32.7246 86.4925C33.0072 85.8934 33.2333 85.3395 33.2333 85.2604C33.2333 85.1813 33.2785 85.0682 33.335 85.0117C33.4594 84.8648 33.9228 83.3388 34.3976 81.5075C34.8497 79.7894 35.0645 75.9687 34.8045 74.1035C34.748 73.6401 34.6463 72.8601 34.5898 72.374C34.5332 71.888 34.4315 71.3228 34.375 71.1306C34.3072 70.9271 34.1715 70.4637 34.0698 70.0907C33.5611 68.2142 33.1881 67.2082 32.3855 65.603C31.3116 63.4666 29.9213 61.4771 28.3161 59.7703C27.4683 58.8772 24.4841 56.2435 23.1729 55.2487C22.8338 54.9887 22.5059 54.7287 22.4381 54.6835C22.1555 54.4574 20.833 53.5644 20.686 53.4966C20.4939 53.3949 20.2791 53.2705 19.6122 52.841C19.3635 52.6827 19.0809 52.5132 18.9905 52.4793C18.9 52.4341 18.64 52.2871 18.4253 52.1628C17.521 51.6089 15.6219 50.7159 14.1298 50.1394C13.5985 49.9359 13.022 49.6985 12.8299 49.6194C12.649 49.5403 11.9369 49.3142 11.2473 49.122C10.5691 48.9186 9.90216 48.7151 9.77782 48.6586C9.57435 48.5681 9.03177 48.4438 7.3475 48.1047C6.83882 48.003 6.08147 47.8673 4.57806 47.6412C3.62853 47.4943 0 47.3586 0 47.4717Z" fill="#04A474"/>
</svg>
