<svg width="81" height="95" viewBox="0 0 81 95" fill="none" xmlns="http://www.w3.org/2000/svg">
<path d="M20.6418 0.0746763C19.7714 0.312057 17.0924 3.42061 15.589 5.94137C13.4073 9.60381 12.2656 13.8767 12.2656 18.3191C12.2656 20.3425 12.65 23.338 13.0569 24.4797C13.136 24.6944 13.283 25.1805 13.3847 25.5535C13.7012 26.6726 14.8768 29.3403 15.5211 30.4142C17.2393 33.2514 18.7879 35.0148 21.9417 37.7052C22.3373 38.0443 22.6878 38.3495 22.7217 38.3947C22.7556 38.4286 23.2077 38.8355 23.739 39.2877C24.2703 39.7399 24.7225 40.1468 24.7564 40.1807C24.7903 40.2259 25.6494 40.9833 26.678 41.8763C27.7067 42.7693 29.0744 43.9675 29.7301 44.544C30.3857 45.1205 31.3465 45.957 31.8778 46.4204C33.2569 47.6073 35.6759 50.015 36.3428 50.8402C36.9984 51.6654 38.2079 53.2705 38.4001 53.5871C39.3044 55.0679 39.6322 55.6444 40.1409 56.5826C40.4235 57.1252 41.373 59.1825 41.373 59.2616C41.373 59.3068 41.52 59.7137 41.7008 60.1885C42.0852 61.1945 42.6843 63.1614 42.7634 63.6475C42.786 63.8283 42.9442 64.6196 43.1025 65.3996C43.4642 67.163 43.5433 68.2029 43.532 71.1532C43.5207 73.9001 43.3964 75.3469 43.0686 76.8164C42.9329 77.4042 42.786 78.1164 42.7408 78.399C42.3564 80.4676 40.6157 84.7517 39.214 87.0464C38.7392 87.8151 38.0384 88.9116 37.9027 89.0811C37.8462 89.1376 37.6088 89.4767 37.3601 89.8159C37.1115 90.155 36.8854 90.4602 36.8515 90.4941C36.8176 90.528 36.3315 91.0819 35.755 91.7375C35.1898 92.3931 34.3985 93.2409 33.9803 93.6366C33.5734 94.0322 33.2342 94.4052 33.2342 94.4617C33.2342 94.5183 38.5697 94.5635 46.5954 94.5635H59.9565L61.1547 93.354C63.8677 90.6071 66.0267 87.0125 66.9762 83.6553C67.0892 83.2822 67.2136 82.8753 67.2701 82.751C67.3831 82.4797 67.7336 80.5919 67.9596 79.0772C68.1518 77.7095 68.1518 75.1322 67.9596 73.8209C67.7223 72.1932 67.3605 70.2376 67.2588 70.0454C67.2136 69.9437 67.0892 69.5594 66.9875 69.1864C66.8745 68.8133 66.7275 68.3273 66.6484 68.1125C66.1962 66.9595 65.7102 65.8517 65.4276 65.3657C65.258 65.0718 65.1111 64.8005 65.1111 64.7552C65.1111 64.5066 62.9068 61.285 62.3529 60.7424C62.2738 60.6633 61.9912 60.3354 61.7086 60.0302C61.2678 59.5329 60.4765 58.7755 59.007 57.4417C58.7922 57.2382 58.0236 56.5713 57.3114 55.9609C56.5993 55.3392 55.9889 54.8079 55.955 54.774C55.9211 54.7287 55.288 54.1749 54.542 53.5305C53.7959 52.8862 53.129 52.2984 53.0612 52.2419C52.9934 52.1741 52.4395 51.688 51.8178 51.1567C51.2074 50.6254 50.45 49.9698 50.1335 49.6872C49.8283 49.4046 49.184 48.8394 48.7205 48.4438C45.1372 45.3466 42.6843 42.4867 40.8078 39.1747C40.2539 38.1912 38.9992 35.6026 38.9992 35.4331C38.9992 35.3766 38.8523 34.9583 38.6714 34.5062C38.5018 34.0653 38.2645 33.3871 38.1514 33.0141C38.0384 32.641 37.8801 32.1098 37.801 31.8272C37.654 31.3411 37.5071 30.6742 37.1454 28.7751C36.8741 27.3961 36.795 26.2544 36.795 23.6884C36.795 21.1111 36.8967 19.6529 37.1341 18.5452C37.2132 18.1721 37.3715 17.4035 37.4732 16.8496C37.688 15.7305 38.1514 14.1593 38.6714 12.8254C38.8523 12.362 38.9992 11.9324 38.9992 11.8872C38.9992 11.7968 39.2818 11.1637 39.8809 9.89771C41.2826 6.94741 43.3286 4.09884 45.9963 1.39723C46.6519 0.730299 47.138 0.142499 47.0928 0.097284C46.9797 -0.0157544 21.06 -0.0383621 20.6418 0.0746763Z" fill="#1094F4"/>
<path d="M53.8628 0.0405036C53.4219 0.0970229 51.489 2.04128 50.3134 3.61251C49.0586 5.29679 47.5552 7.94189 47.137 9.21922C47.0805 9.37747 46.9335 9.78441 46.7979 10.1235C46.6622 10.4626 46.504 10.9261 46.4588 11.1409C46.4135 11.3556 46.2553 11.9434 46.1196 12.4408C45.7353 13.8538 45.4414 16.4198 45.4414 18.2623C45.4527 20.1161 45.7579 22.7386 46.1309 24.0273C46.2553 24.4907 46.4135 25.0785 46.4588 25.3385C46.5153 25.5872 46.6848 26.0959 46.8431 26.4576C47.0013 26.808 47.137 27.1584 47.137 27.2375C47.137 27.4636 48.6065 30.3461 49.1152 31.1261C49.9403 32.3808 50.0986 32.5956 50.9916 33.6694C52.4611 35.4328 55.8409 38.5188 57.6496 39.7396C57.7852 39.83 58.113 40.0674 58.373 40.2596C58.9834 40.7117 60.306 41.5708 60.8711 41.876C61.1198 42.0117 61.5042 42.2264 61.7189 42.3621C62.2841 42.7012 64.7258 43.922 64.8388 43.922C64.8953 43.922 65.0988 44.0011 65.2796 44.1029C66.3196 44.6455 69.6316 45.7758 71.3837 46.1828C72.7289 46.488 73.0567 46.5558 74.8314 46.8045C78.0869 47.2679 80.3703 47.4488 80.3703 47.2453C80.3703 47.2001 79.7486 46.5219 78.9799 45.7419C77.3634 44.069 76.3913 42.8821 75.1931 41.1074C74.1871 39.6039 74.0175 39.2987 73.2036 37.6484C72.435 36.0885 72.0506 35.2407 71.9489 34.8789C71.9037 34.7207 71.7567 34.2911 71.6098 33.9181C71.4628 33.5338 71.282 32.9799 71.2142 32.6747C71.1463 32.3582 71.0559 32.0078 70.9994 31.8834C70.8637 31.5669 70.6603 30.6852 70.4568 29.5661C69.9255 26.5932 69.7673 24.242 69.9481 21.823C70.129 19.4153 70.4229 17.4936 70.8185 16.058C70.9203 15.685 71.0785 15.1198 71.1576 14.8146C71.7454 12.6217 72.955 9.84093 74.3114 7.58016C74.6844 6.95845 75.1253 6.26892 75.3061 6.04284C75.4757 5.81676 75.6227 5.59069 75.6227 5.55678C75.6227 5.48895 76.5948 4.18901 76.8661 3.89511C76.9565 3.79338 77.3295 3.36383 77.68 2.93428C78.0304 2.50474 78.7877 1.70217 79.3529 1.14828C79.9181 0.594389 80.3477 0.119631 80.3138 0.085719C80.2459 0.017896 54.4506 -0.0273194 53.8628 0.0405036Z" fill="#1094F4"/>
<path d="M0 47.4717C0 47.5169 0.53128 48.0708 1.1643 48.7038C2.56597 50.0942 3.61723 51.315 4.57806 52.6827C5.24498 53.6323 6.01364 54.8192 6.08147 54.9887C6.11538 55.0905 6.20581 55.2487 6.28494 55.3391C6.7597 55.9156 8.50049 59.872 8.98655 61.4997C9.09959 61.8728 9.24654 62.3814 9.32567 62.6301C9.65348 63.6927 10.1395 66.2474 10.3204 67.9429C10.5917 70.3846 10.4447 74.2279 10.0039 76.2513C9.92477 76.6582 9.76652 77.3929 9.66478 77.8903C9.55174 78.3877 9.34828 79.2242 9.19002 79.7554C9.03177 80.2867 8.87351 80.8632 8.817 81.0554C8.77178 81.2362 8.60222 81.6884 8.43266 82.0614C8.27441 82.4232 8.13876 82.7736 8.13876 82.8301C8.13876 82.8866 7.99182 83.237 7.79965 83.6214C7.61879 83.9944 7.46053 84.3448 7.46053 84.4013C7.46053 84.4465 7.31358 84.7517 7.12142 85.0682C6.94056 85.3848 6.7823 85.69 6.7823 85.7465C6.7823 85.803 6.62405 86.0743 6.44319 86.3456C6.25102 86.6282 6.10407 86.8882 6.10407 86.9221C6.10407 87.0803 4.32937 89.6802 3.62853 90.5393C2.67901 91.7262 2.29468 92.1558 1.05126 93.3879C0.474761 93.9531 0.0339115 94.4504 0.0791269 94.4843C0.113038 94.5296 6.12668 94.5635 13.4403 94.5635H26.7336L27.2762 94.1C27.9318 93.5348 29.7178 91.4775 30.4525 90.4602C30.9386 89.782 32.2159 87.7133 32.2159 87.6116C32.2159 87.589 32.442 87.0803 32.7246 86.4925C33.0072 85.8934 33.2333 85.3395 33.2333 85.2604C33.2333 85.1813 33.2785 85.0682 33.335 85.0117C33.4594 84.8648 33.9228 83.3388 34.3976 81.5075C34.8497 79.7894 35.0645 75.9687 34.8045 74.1035C34.748 73.6401 34.6463 72.8601 34.5898 72.374C34.5332 71.888 34.4315 71.3228 34.375 71.1306C34.3072 70.9271 34.1715 70.4637 34.0698 70.0907C33.5611 68.2142 33.1881 67.2082 32.3855 65.603C31.3116 63.4666 29.9213 61.4771 28.3161 59.7703C27.4683 58.8772 24.4841 56.2435 23.1729 55.2487C22.8338 54.9887 22.5059 54.7287 22.4381 54.6835C22.1555 54.4574 20.833 53.5644 20.686 53.4966C20.4939 53.3949 20.2791 53.2705 19.6122 52.841C19.3635 52.6827 19.0809 52.5132 18.9905 52.4793C18.9 52.4341 18.64 52.2871 18.4253 52.1628C17.521 51.6089 15.6219 50.7159 14.1298 50.1394C13.5985 49.9359 13.022 49.6985 12.8299 49.6194C12.649 49.5403 11.9369 49.3142 11.2473 49.122C10.5691 48.9186 9.90216 48.7151 9.77782 48.6586C9.57435 48.5681 9.03177 48.4438 7.3475 48.1047C6.83882 48.003 6.08147 47.8673 4.57806 47.6412C3.62853 47.4943 0 47.3586 0 47.4717Z" fill="#1094F4"/>
</svg>
